<?xml version="1.0" encoding="UTF-8" standalone="no"?>
<!-- Created with Inkscape (http://www.inkscape.org/) -->

<svg
   width="38pt"
   height="38pt"
   viewBox="0 0 13.405555 13.405556"
   version="1.1"
   id="svg59706"
   inkscape:version="1.1.1 (3bf5ae0d25, 2021-09-20)"
   sodipodi:docname="logo.svg"
   inkscape:export-filename="icon.png"
   inkscape:export-xdpi="636.95001"
   inkscape:export-ydpi="636.95001"
   xmlns:inkscape="http://www.inkscape.org/namespaces/inkscape"
   xmlns:sodipodi="http://sodipodi.sourceforge.net/DTD/sodipodi-0.dtd"
   xmlns="http://www.w3.org/2000/svg"
   xmlns:svg="http://www.w3.org/2000/svg">
  <sodipodi:namedview
     id="namedview59708"
     pagecolor="#ffffff"
     bordercolor="#666666"
     borderopacity="1.0"
     inkscape:pageshadow="2"
     inkscape:pageopacity="0.0"
     inkscape:pagecheckerboard="0"
     inkscape:document-units="mm"
     showgrid="false"
     lock-margins="true"
     fit-margin-top="0"
     fit-margin-left="0"
     fit-margin-right="0"
     fit-margin-bottom="0"
     inkscape:zoom="5.7869808"
     inkscape:cx="37.929969"
     inkscape:cy="56.246947"
     inkscape:window-width="1920"
     inkscape:window-height="1001"
     inkscape:window-x="-9"
     inkscape:window-y="-9"
     inkscape:window-maximized="1"
     inkscape:current-layer="layer1"
     units="pt" />
  <defs
     id="defs59703" />
  <g
     inkscape:label="Layer 1"
     inkscape:groupmode="layer"
     id="layer1"
     transform="translate(-77.082304,-82.569449)">
    <path
       inkscape:connector-curvature="0"
       id="path437-0-3-8-6-6-2-4"
       d="m 83.78462,93.281014 c -2.209708,0 -4.008048,-1.798464 -4.008048,-4.009249 0,-2.20986 1.79834,-4.008324 4.008048,-4.008324 2.210633,0 4.008973,1.798464 4.008973,4.008324 0,2.210785 -1.79834,4.009249 -4.008973,4.009249"
       style="fill:#ff9004;fill-opacity:1;fill-rule:nonzero;stroke:none;stroke-width:0.237193"
       inkscape:export-filename="panel-variations4.png"
       inkscape:export-xdpi="150.05061"
       inkscape:export-ydpi="150.05061" />
    <path
       inkscape:connector-curvature="0"
       id="path439-9-8-4-2-4-2-1"
       d="m 83.78462,84.966939 c -2.3737,0 -4.304528,1.930962 -4.304528,4.304826 0,2.373861 1.930828,4.30575 4.304528,4.30575 2.373697,0 4.305453,-1.930962 4.305453,-4.30575 0,-2.373864 -1.931756,-4.304826 -4.305453,-4.304826 m 0,0.593003 c 2.050348,0 3.712492,1.661333 3.712492,3.711823 0,2.05049 -1.662144,3.712748 -3.712492,3.712748 -2.050348,0 -3.711567,-1.662258 -3.711567,-3.712748 0,-2.05049 1.661219,-3.711823 3.711567,-3.711823"
       style="fill:#231f20;fill-opacity:1;fill-rule:nonzero;stroke:none;stroke-width:0.23706667;stroke-miterlimit:4;stroke-dasharray:none"
       inkscape:export-filename="panel-variations4.png"
       inkscape:export-xdpi="150.05061"
       inkscape:export-ydpi="150.05061" />
    <g
       id="g11714-1-3-7"
       transform="matrix(0.23718448,0,0,0.23720085,-156.63125,34.987601)"
       style="fill:#ffffff;fill-opacity:1;stroke:none"
       inkscape:export-filename="panel-variations4.png"
       inkscape:export-xdpi="150.05061"
       inkscape:export-ydpi="150.05061">
      <path
         id="path11187-3-3-3-8"
         style="fill:#ffffff;fill-opacity:1;stroke:none;stroke-width:0.5"
         d="m 1019.4753,232.19156 c -1.8938,0 -4.6114,-3.429 -4.6114,-3.429 0,0 2.7176,-3.429 4.6114,-3.429 1.8938,0 3.429,1.5352 3.429,3.429 0,1.8938 -1.5352,3.429 -3.429,3.429 z"
         sodipodi:nodetypes="scsss" />
      <path
         id="path11187-3-8-2-47-9"
         style="fill:#ffffff;fill-opacity:1;stroke:none;stroke-width:0.5"
         d="m 1007.7765,232.19156 c 1.8938,0 4.6114,-3.429 4.6114,-3.429 0,0 -2.7176,-3.429 -4.6114,-3.429 -1.8938,0 -3.429,1.5352 -3.429,3.429 0,1.8938 1.5352,3.429 3.429,3.429 z"
         sodipodi:nodetypes="scsss" />
      <path
         id="path11187-3-8-5-7-3-6"
         style="fill:#ffffff;fill-opacity:1;stroke:none;stroke-width:0.5"
         d="m 1017.0549,234.70688 c 0,-1.8938 -3.429,-4.6114 -3.429,-4.6114 0,0 -3.429,2.7176 -3.429,4.6114 0,1.8938 1.5352,3.429 3.429,3.429 1.8938,0 3.429,-1.5352 3.429,-3.429 z"
         sodipodi:nodetypes="scsss" />
      <path
         id="path11187-38-30-2"
         style="fill:#ffffff;fill-opacity:1;stroke:none;stroke-width:0.5"
         d="m 1017.0549,223.00333 c 0,1.89378 -3.429,4.61141 -3.429,4.61141 0,0 -3.429,-2.71763 -3.429,-4.61141 0,-1.89378 1.5352,-3.429 3.429,-3.429 1.8938,0 3.429,1.53522 3.429,3.429 z"
         sodipodi:nodetypes="scsss" />
    </g>
  </g>
</svg>
